# xmcd CD database file generated by OrangeCD 6.3
#
# Track frame offsets:
#	150
#	11125
#	23605
#	34450
#	50465
#	60210
#	77672
#	91687
#	104690
#	116087
#	127110
#	139722
#	153910
#	167282
#	181862
#	194645
#	206947
#	219952
#	232877
#	245990
#	260687
#
# Disc length: 3653 seconds
#
# Revision: 1
# Processed by: cddbd v1.5.2PL0 Copyright (c) Steve Scherf et al.
# Submitted via: OrangeCD 6.3
#
DISCID=240e4315
DTITLE=Cecil Gant - Blues In L.A.
DYEAR=1997
DGENRE=Piano Blues
TTITLE0=Killer Diller Boogie
TTITLE1=I Wonder
TTITLE2=Cecil Boogie
TTITLE3=Blues In L.A.
TTITLE4=When I Wanted You
TTITLE5=Little Baby You're Running Wild
TTITLE6=Rhumba Boogie Woogie
TTITLE7=I Gotta Gal
TTITLE8=Cecil's Mop Mop
TTITLE9=Wake Up, Cecil, Wake Up
TTITLE10=New Cecil Boogie
TTITLE11=Soft And Mellow
TTITLE12=Hit That Jive Jack
TTITLE13=Special Delivery
TTITLE14=That's The Stuff You Gotta Watch
TTITLE15=I'll Remember You
TTITLE16=Midnight On Central Avenue
TTITLE17=Boogie Blues
TTITLE18=Jump Jack Jump
TTITLE19=It's All Over Darling
TTITLE20=What's On Your Worried Mind
EXTD=
EXTT0=
EXTT1=
EXTT2=
EXTT3=
EXTT4=
EXTT5=
EXTT6=
EXTT7=
EXTT8=
EXTT9=
EXTT10=
EXTT11=
EXTT12=
EXTT13=
EXTT14=
EXTT15=
EXTT16=
EXTT17=
EXTT18=
EXTT19=
EXTT20=
PLAYORDER=
